GIL11_fast2_RRA_states
nRows=4
nColumns=47

# SIMM Motion File Header:
name GIL11_fast2_RRA_states
datacolumns 47
datarows 4
otherdata 1
range 0.67350000000000043000 0.67500000000000049000
endheader
time	pelvis_tx	pelvis_ty	pelvis_tz	pelvis_tilt	pelvis_list	pelvis_rotation	hip_flexion_r	hip_adduction_r	hip_rotation_r	knee_angle_r	ankle_angle_r	subtalar_angle_r	mtp_angle_r	hip_flexion_l	hip_adduction_l	hip_rotation_l	knee_angle_l	ankle_angle_l	subtalar_angle_l	mtp_angle_l	lumbar_extension	lumbar_bending	lumbar_rotation	pelvis_tx_u	pelvis_ty_u	pelvis_tz_u	pelvis_tilt_u	pelvis_list_u	pelvis_rotation_u	hip_flexion_r_u	hip_adduction_r_u	hip_rotation_r_u	knee_angle_r_u	ankle_angle_r_u	subtalar_angle_r_u	mtp_angle_r_u	hip_flexion_l_u	hip_adduction_l_u	hip_rotation_l_u	knee_angle_l_u	ankle_angle_l_u	subtalar_angle_l_u	mtp_angle_l_u	lumbar_extension_u	lumbar_bending_u	lumbar_rotation_u
      0.67350000000000043000	      2.19263813780972060000	      0.86572761020755207000	     -0.24505539377325206000	     -4.91090475911706830000	      4.47298635566513260000	      2.15993503448102330000	     18.87998731704477300000	     -7.37948297225096630000	     -1.66172976270804940000	    -60.99189628407181400000	     -4.79192150109008000000	     -0.00000000000039688609	     -0.00000000000020731455	     10.71365081089035000000	      8.16594832485305130000	     11.14717421410046500000	    -19.13429119561542200000	      9.86040962287463250000	      0.00000000000006055367	     -0.00000000000003020346	     -4.83946839187936550000	     -5.31354428069783590000	     -1.80929686185918200000	      1.47116273097034610000	      0.13001520301225883000	      0.07454534897340542300	    -18.08435412559291300000	    -51.15913050830077700000	      4.29812325638894240000	    226.56616061731867000000	     56.95638471555934500000	    -72.11759561876903000000	     24.54668683785925200000	    189.88348626010557000000	     -0.00000000000128903626	     -0.00000000000024852533	   -142.92860523059937000000	    -53.05468693751370800000	     -1.02332788194718120000	     95.09029095277978200000	     38.29924477408911100000	      0.00000000000043857820	      0.00000000000008231432	     10.34677337515523600000	     61.32850576706650300000	    -36.78631064025916700000
      0.67400000000000049000	      2.19337379649560620000	      0.86579223186406307000	     -0.24501806049840727000	     -4.91994324538943940000	      4.44743898581429600000	      2.16208872216740480000	     18.99311712193345200000	     -7.35104762560883170000	     -1.69776268257453580000	    -60.97915690064184700000	     -4.69709563326441780000	     -0.00000000000039753057	     -0.00000000000020743900	     10.64213425244521200000	      8.13945564208859370000	     11.14678662036984100000	    -19.08659608373212500000	      9.87935806205752700000	      0.00000000000006077258	     -0.00000000000003015181	     -4.83428358774636010000	     -5.28292265130159500000	     -1.82772267941126270000	      1.47147229602485300000	      0.12847017885028808000	      0.07478707601228641600	    -18.06975819937438700000	    -51.03026208205648800000	      4.31686108006318750000	    225.95283754027474000000	     56.78470679461579400000	    -72.01211440736626900000	     26.41151622851798600000	    189.41819150047377000000	     -0.00000000000128998304	     -0.00000000000024885949	   -143.13803860720461000000	    -52.91632820385138600000	     -0.52474388364626201000	     95.69159734580921400000	     37.49396868725755600000	      0.00000000000043872402	      0.00000000000009959310	     10.39251156860950500000	     61.15790564558612600000	    -36.91664457920731500000
      0.67450000000000043000	      2.19410961037793580000	      0.86585607914040785000	     -0.24498060732180593000	     -4.92897468197767630000	      4.42195616143479330000	      2.16425210255535690000	     19.10593994880653700000	     -7.32269853085807210000	     -1.73373991947147070000	    -60.96548411296128500000	     -4.60250511802030980000	     -0.00000000000039817548	     -0.00000000000020756359	     10.57051236021097100000	      8.11303168466073110000	     11.14665173155012400000	    -19.03859817091058900000	      9.89790324083955400000	      0.00000000000006099471	     -0.00000000000003010671	     -4.82907581386189030000	     -5.25238646552017570000	     -1.84621313767428270000	      1.47178349401937550000	      0.12691768073761933000	      0.07502505581795655700	    -18.05615013333460400000	    -50.90098666179347500000	      4.33684048199474500000	    225.33828042467752000000	     56.61143683649663700000	    -71.89488720030865900000	     28.28027268074026400000	    188.94204657585357000000	     -0.00000000000129069017	     -0.00000000000024982894	   -143.34994445718502000000	    -52.77984154011434000000	     -0.01259281358970214800	     96.30146750467895300000	     36.68658986083731600000	      0.00000000000046356582	      0.00000000000003917489	     10.43864826985907400000	     60.98676287420678200000	    -37.04476542105621200000
      0.67500000000000049000	      2.19484558023753130000	      0.86591914830553218000	     -0.24494303605249046000	     -4.93799956232593560000	      4.39653805604632190000	      2.16642577073328950000	     19.21845521121105100000	     -7.29443644249736600000	     -1.76965564453865660000	    -60.95087598787650800000	     -4.50815540974853150000	     -0.00000000000039882048	     -0.00000000000020768886	     10.49878391219529700000	      8.08667547399773490000	     11.14677627820151100000	    -18.99029323020308600000	      9.91604436064515050000	      0.00000000000006122201	     -0.00000000000003007539	     -4.82384487392702340000	     -5.22193597166008420000	     -1.86476705080507200000	      1.47209617912373610000	      0.12535774897461155000	      0.07525937602364234100	    -18.04354285448785300000	    -50.77137002973458400000	      4.35806828707722980000	    224.72257717306519000000	     56.43664467990058100000	    -71.76610852834619400000	     30.15286733135587500000	    188.45496388978398000000	     -0.00000000000128866592	     -0.00000000000025122479	   -143.56422491485043000000	    -52.64531440824798400000	      0.51306161146351503000	     96.91965322108649200000	     35.87746533804612200000	      0.00000000000043571257	      0.00000000000010785410	     10.48517819724672500000	     60.81512090096789800000	    -37.17052187048310000000
